<svg xmlns="http://www.w3.org/2000/svg" viewBox="0 0 2048 1536">
  <!-- Ground -->
  <path d="M0 1200 L2048 1200 L2048 1536 L0 1536 Z" fill="none" stroke="#1A1817" stroke-width="6"/>
  <!-- Bear body -->
  <ellipse cx="500" cy="900" rx="100" ry="120" fill="none" stroke="#1A1817" stroke-width="8"/>
  <!-- Bear head -->
  <circle cx="500" cy="760" r="80" fill="none" stroke="#1A1817" stroke-width="8"/>
  <!-- Bear ears -->
  <circle cx="440" cy="700" r="25" fill="none" stroke="#1A1817" stroke-width="6"/>
  <circle cx="560" cy="700" r="25" fill="none" stroke="#1A1817" stroke-width="6"/>
  <!-- Bear face -->
  <ellipse cx="500" cy="780" rx="30" ry="20" fill="none" stroke="#1A1817" stroke-width="4"/>
  <circle cx="475" cy="750" r="6" fill="none" stroke="#1A1817" stroke-width="4"/>
  <circle cx="525" cy="750" r="6" fill="none" stroke="#1A1817" stroke-width="4"/>
  <circle cx="500" cy="770" r="5" fill="none" stroke="#1A1817" stroke-width="3"/>
  <!-- Bear legs -->
  <ellipse cx="430" cy="1060" rx="35" ry="50" fill="none" stroke="#1A1817" stroke-width="7"/>
  <ellipse cx="570" cy="1060" rx="35" ry="50" fill="none" stroke="#1A1817" stroke-width="7"/>
  <!-- Bear arms -->
  <path d="M400 850 Q350 900 360 950" fill="none" stroke="#1A1817" stroke-width="7" stroke-linecap="round"/>
  <path d="M600 850 Q650 900 640 950" fill="none" stroke="#1A1817" stroke-width="7" stroke-linecap="round"/>
  <!-- Rabbit body -->
  <ellipse cx="1050" cy="940" rx="70" ry="80" fill="none" stroke="#1A1817" stroke-width="7"/>
  <!-- Rabbit head -->
  <circle cx="1050" cy="840" r="50" fill="none" stroke="#1A1817" stroke-width="7"/>
  <!-- Rabbit ears -->
  <ellipse cx="1020" cy="760" rx="15" ry="50" fill="none" stroke="#1A1817" stroke-width="6"/>
  <ellipse cx="1080" cy="760" rx="15" ry="50" fill="none" stroke="#1A1817" stroke-width="6"/>
  <!-- Rabbit face -->
  <circle cx="1035" cy="835" r="5" fill="none" stroke="#1A1817" stroke-width="4"/>
  <circle cx="1065" cy="835" r="5" fill="none" stroke="#1A1817" stroke-width="4"/>
  <ellipse cx="1050" cy="855" rx="8" ry="5" fill="none" stroke="#1A1817" stroke-width="3"/>
  <!-- Rabbit legs -->
  <ellipse cx="1010" cy="1040" rx="25" ry="35" fill="none" stroke="#1A1817" stroke-width="6"/>
  <ellipse cx="1090" cy="1040" rx="25" ry="35" fill="none" stroke="#1A1817" stroke-width="6"/>
  <!-- Rabbit tail -->
  <circle cx="1120" cy="920" r="15" fill="none" stroke="#1A1817" stroke-width="5"/>
  <!-- Fox body -->
  <ellipse cx="1550" cy="950" rx="80" ry="70" fill="none" stroke="#1A1817" stroke-width="7"/>
  <!-- Fox head -->
  <ellipse cx="1550" cy="870" rx="45" ry="40" fill="none" stroke="#1A1817" stroke-width="7"/>
  <!-- Fox ears -->
  <path d="M1520 840 L1500 780 L1540 830 Z" fill="none" stroke="#1A1817" stroke-width="6" stroke-linejoin="round"/>
  <path d="M1580 840 L1600 780 L1560 830 Z" fill="none" stroke="#1A1817" stroke-width="6" stroke-linejoin="round"/>
  <!-- Fox face -->
  <circle cx="1538" cy="865" r="4" fill="none" stroke="#1A1817" stroke-width="3"/>
  <circle cx="1562" cy="865" r="4" fill="none" stroke="#1A1817" stroke-width="3"/>
  <ellipse cx="1550" cy="880" rx="6" ry="4" fill="none" stroke="#1A1817" stroke-width="3"/>
  <!-- Fox tail -->
  <path d="M1630 950 Q1700 900 1680 820 Q1670 850 1630 920" fill="none" stroke="#1A1817" stroke-width="7" stroke-linecap="round"/>
  <!-- Fox legs -->
  <ellipse cx="1510" cy="1040" rx="22" ry="30" fill="none" stroke="#1A1817" stroke-width="6"/>
  <ellipse cx="1590" cy="1040" rx="22" ry="30" fill="none" stroke="#1A1817" stroke-width="6"/>
  <!-- Trees -->
  <path d="M100 1200 L100 600" fill="none" stroke="#1A1817" stroke-width="8"/>
  <ellipse cx="100" cy="550" rx="80" ry="100" fill="none" stroke="#1A1817" stroke-width="7"/>
  <ellipse cx="100" cy="650" rx="60" ry="80" fill="none" stroke="#1A1817" stroke-width="6"/>
  <path d="M1900 1200 L1900 500" fill="none" stroke="#1A1817" stroke-width="8"/>
  <ellipse cx="1900" cy="450" rx="90" ry="110" fill="none" stroke="#1A1817" stroke-width="7"/>
  <ellipse cx="1900" cy="580" rx="70" ry="90" fill="none" stroke="#1A1817" stroke-width="6"/>
</svg>