<svg xmlns="http://www.w3.org/2000/svg" viewBox="0 0 2048 1536">
  <!-- Background Sun and Sparkles -->
  <circle cx="1700" cy="250" r="90" fill="none" stroke="#2C2523" stroke-width="8"/>
  <path d="M1700 120 L1700 70 M1700 380 L1700 430 M1570 250 L1520 250 M1830 250 L1880 250 M1610 160 L1570 120 M1790 340 L1830 380 M1610 340 L1570 380 M1790 160 L1830 120" stroke="#2C2523" stroke-width="7" stroke-linecap="round"/>

  <!-- Fluffy Cloud -->
  <path d="M250 300 Q300 220 400 230 Q470 160 580 200 Q660 210 700 280 Q760 300 750 370 Q740 430 660 440 L280 440 Q200 420 210 350 Q210 300 250 300 Z" fill="none" stroke="#2C2523" stroke-width="8" stroke-linejoin="round"/>

  <!-- Butterfly main body -->
  <ellipse cx="1024" cy="768" rx="26" ry="110" fill="none" stroke="#2C2523" stroke-width="9" stroke-linecap="round"/>
  <circle cx="1024" cy="620" r="32" fill="none" stroke="#2C2523" stroke-width="8"/>

  <!-- Cute Eyes & Smile -->
  <circle cx="1012" cy="615" r="5" fill="#2C2523"/>
  <circle cx="1036" cy="615" r="5" fill="#2C2523"/>
  <path d="M1018 630 Q1024 638 1030 630" fill="none" stroke="#2C2523" stroke-width="4" stroke-linecap="round"/>

  <!-- Antennae with curly tips -->
  <path d="M1012 590 Q970 500 930 480 Q910 470 915 495 Q925 510 945 500" fill="none" stroke="#2C2523" stroke-width="7" stroke-linecap="round"/>
  <path d="M1036 590 Q1078 500 1118 480 Q1138 470 1133 495 Q1123 510 1103 500" fill="none" stroke="#2C2523" stroke-width="7" stroke-linecap="round"/>

  <!-- Upper left wing -->
  <path d="M1000 700 Q750 420 450 540 Q380 620 480 780 Q650 860 990 770 Z" fill="none" stroke="#2C2523" stroke-width="9" stroke-linecap="round" stroke-linejoin="round"/>
  <circle cx="680" cy="640" r="55" fill="none" stroke="#2C2523" stroke-width="6"/>
  <circle cx="560" cy="710" r="35" fill="none" stroke="#2C2523" stroke-width="5"/>
  <circle cx="780" cy="600" r="28" fill="none" stroke="#2C2523" stroke-width="5"/>

  <!-- Upper right wing -->
  <path d="M1048 700 Q1298 420 1598 540 Q1668 620 1568 780 Q1398 860 1058 770 Z" fill="none" stroke="#2C2523" stroke-width="9" stroke-linecap="round" stroke-linejoin="round"/>
  <circle cx="1368" cy="640" r="55" fill="none" stroke="#2C2523" stroke-width="6"/>
  <circle cx="1488" cy="710" r="35" fill="none" stroke="#2C2523" stroke-width="5"/>
  <circle cx="1268" cy="600" r="28" fill="none" stroke="#2C2523" stroke-width="5"/>

  <!-- Lower left wing -->
  <path d="M1000 790 Q800 1020 580 960 Q480 880 580 810 Q780 840 990 810 Z" fill="none" stroke="#2C2523" stroke-width="8" stroke-linecap="round" stroke-linejoin="round"/>
  <circle cx="740" cy="900" r="30" fill="none" stroke="#2C2523" stroke-width="5"/>

  <!-- Lower right wing -->
  <path d="M1048 790 Q1248 1020 1468 960 Q1568 880 1468 810 Q1268 840 1058 810 Z" fill="none" stroke="#2C2523" stroke-width="8" stroke-linecap="round" stroke-linejoin="round"/>
  <circle cx="1308" cy="900" r="30" fill="none" stroke="#2C2523" stroke-width="5"/>

  <!-- Garden flowers at bottom -->
  <path d="M200 1350 Q200 1200 300 1200 Q400 1200 400 1350" fill="none" stroke="#2C2523" stroke-width="7"/>
  <circle cx="300" cy="1200" r="30" fill="none" stroke="#2C2523" stroke-width="6"/>
  <path d="M1650 1350 Q1650 1180 1750 1180 Q1850 1180 1850 1350" fill="none" stroke="#2C2523" stroke-width="7"/>
  <circle cx="1750" cy="1180" r="30" fill="none" stroke="#2C2523" stroke-width="6"/>
</svg>